<svg id="Layer_1" data-name="Layer 1" xmlns="http://www.w3.org/2000/svg" viewBox="0 0 376.13 102.81"><defs><style>.cls-1{fill:#d3dce6;}</style></defs><title>wordpress4</title><path class="cls-1" d="M217.87,42.47H203.3V44c4.56,0,5.29,1,5.29,6.76V61.19c0,5.79-.73,6.84-5.29,6.84-3.5-.48-5.86-2.36-9.12-5.94L190.44,58c5-.9,7.73-4.07,7.73-7.65,0-4.48-3.83-7.9-11-7.9H172.85V44c4.56,0,5.29,1,5.29,6.76V61.19c0,5.79-.73,6.84-5.29,6.84v1.55h16.2V68c-4.56,0-5.29-1-5.29-6.84V58.26h1.38l9,11.32h23.69c11.65,0,16.69-6.19,16.69-13.6S229.52,42.47,217.87,42.47ZM183.76,55.74V44.91h3.34c3.66,0,5.29,2.53,5.29,5.46s-1.63,5.37-5.29,5.37Zm34.36,11.32h-.57c-2.93,0-3.34-.74-3.34-4.48V44.91h3.91c8.47,0,10,6.19,10,11C228.13,60.87,226.59,67.06,218.12,67.06Z"/><path class="cls-1" d="M127.5,58.75l5.62-16.61c1.63-4.8.89-6.18-4.32-6.18V34.33h15.31V36c-5.13,0-6.35,1.22-8.39,7.16L126.44,71h-1.06l-8.3-25.48L108.61,71h-1.06l-9-27.84c-2-5.94-3.26-7.16-8-7.16V34.33h18.07V36c-4.8,0-6.11,1.13-4.4,6.18l5.46,16.61,8.22-24.42h1.55Z"/><path class="cls-1" d="M155.18,70.64c-9,0-16.28-6.6-16.28-14.66s7.33-14.57,16.28-14.57S171.47,48,171.47,56,164.14,70.64,155.18,70.64Zm0-26.71c-7.49,0-10.09,6.76-10.09,12S147.69,68,155.18,68,165.36,61.36,165.36,56,162.75,43.93,155.18,43.93Z"/><path class="cls-1" d="M254.67,68v1.63H236V68c5.45,0,6.43-1.38,6.43-9.52v-13c0-8.14-1-9.45-6.43-9.45V34.33h16.85c8.39,0,13,4.31,13,10.09,0,5.62-4.64,10-13,10h-4.64v4C248.24,66.57,249.22,68,254.67,68Zm-1.79-30.69h-4.64V51.42h4.64c4.56,0,6.68-3.17,6.68-7S257.44,37.26,252.88,37.26Z"/><path class="cls-1" d="M321.84,61.93l-.4,1.46c-.74,2.69-1.63,3.67-7.41,3.67h-1.14c-4.24,0-5-1-5-6.76V56.55c6.35,0,6.84.57,6.84,4.81h1.55V49.23h-1.55c0,4.23-.49,4.8-6.84,4.8V44.91h4.48c5.78,0,6.67,1,7.41,3.67l.41,1.54h1.3L321,42.47H297V44c4.56,0,5.29,1,5.29,6.76V61.19c0,5.29-.62,6.63-4.21,6.82-3.42-.53-5.77-2.39-9-5.92L285.37,58c5.05-.9,7.73-4.07,7.73-7.65,0-4.48-3.82-7.9-11-7.9H267.78V44c4.56,0,5.29,1,5.29,6.76V61.19c0,5.79-.73,6.84-5.29,6.84v1.55H284V68c-4.56,0-5.3-1-5.3-6.84V58.26h1.39l9,11.32h33.47l.49-7.65Zm-43.15-6.19V44.91H282c3.66,0,5.29,2.53,5.29,5.46s-1.63,5.37-5.29,5.37Z"/><path class="cls-1" d="M338.37,70.64A12,12,0,0,1,331,67.87a5.91,5.91,0,0,0-1.3,2.77h-1.55V59.4h1.63c.65,5.38,4.4,8.55,9.2,8.55,2.61,0,4.73-1.46,4.73-3.91,0-2.11-1.88-3.74-5.22-5.29l-4.64-2.2c-3.25-1.54-5.7-4.23-5.7-7.81,0-3.91,3.67-7.25,8.72-7.25a10.22,10.22,0,0,1,6.35,2.12,4.72,4.72,0,0,0,1.06-2.2h1.54V51h-1.71c-.57-3.83-2.68-7-7-7-2.28,0-4.4,1.3-4.4,3.33s1.71,3.26,5.62,5l4.48,2.2c3.91,1.87,5.45,4.89,5.45,7.33C348.3,67.06,343.83,70.64,338.37,70.64Z"/><path class="cls-1" d="M363.45,70.64a12,12,0,0,1-7.33-2.77,5.81,5.81,0,0,0-1.3,2.77h-1.55V59.4h1.63c.65,5.38,4.4,8.55,9.2,8.55,2.6,0,4.72-1.46,4.72-3.91,0-2.11-1.87-3.74-5.21-5.29L359,56.55c-3.26-1.54-5.7-4.23-5.7-7.81,0-3.91,3.66-7.25,8.71-7.25a10.17,10.17,0,0,1,6.35,2.12,4.54,4.54,0,0,0,1.06-2.2h1.55V51h-1.71c-.57-3.83-2.69-7-7-7-2.28,0-4.4,1.3-4.4,3.33s1.71,3.26,5.62,5l4.48,2.2c3.9,1.87,5.45,4.89,5.45,7.33C373.38,67.06,368.9,70.64,363.45,70.64Z"/><path class="cls-1" d="M9.11,51.4A36,36,0,0,0,29.42,83.83L12.23,36.74A35.87,35.87,0,0,0,9.11,51.4Z"/><path class="cls-1" d="M69.47,49.59a19,19,0,0,0-3-9.94c-1.83-3-3.54-5.48-3.54-8.45A6.24,6.24,0,0,1,69,24.8c.16,0,.31,0,.47,0A36,36,0,0,0,15,31.61c.85,0,1.64.05,2.32.05,3.77,0,9.6-.46,9.6-.46a1.49,1.49,0,0,1,.23,3s-2,.23-4.12.34l13.12,39,7.89-23.65L38.46,34.51c-1.94-.11-3.78-.34-3.78-.34a1.49,1.49,0,0,1,.23-3s6,.46,9.49.46c3.77,0,9.61-.46,9.61-.46a1.49,1.49,0,0,1,.23,3s-2,.23-4.13.34l13,38.73,3.6-12C68.29,56.25,69.47,52.67,69.47,49.59Z"/><path class="cls-1" d="M45.78,54.56,35,86a36,36,0,0,0,22.14-.57,3.89,3.89,0,0,1-.25-.5Z"/><path class="cls-1" d="M76.76,34.12a26.69,26.69,0,0,1,.25,3.7,34.13,34.13,0,0,1-2.74,12.91l-11,31.82a36,36,0,0,0,13.5-48.43Z"/><path class="cls-1" d="M45.15,9.4a42,42,0,1,0,42,42A42.05,42.05,0,0,0,45.15,9.4Zm0,82.08A40.08,40.08,0,1,1,85.22,51.4,40.13,40.13,0,0,1,45.15,91.48Z"/></svg>