<svg id="Layer_1" data-name="Layer 1" xmlns="http://www.w3.org/2000/svg" viewBox="0 0 256.17 66.5"><defs><style>.cls-1{fill:#d3dce6;}</style></defs><title>wordpress3</title><path class="cls-1" d="M148.19,27.25h-10v1.06c3.12,0,3.62.67,3.62,4.62v7.12c0,4-.5,4.67-3.62,4.67-2.39-.33-4-1.61-6.23-4.06l-2.55-2.78c3.44-.61,5.28-2.78,5.28-5.23,0-3.06-2.61-5.4-7.51-5.4h-9.79v1.06c3.11,0,3.61.67,3.61,4.62v7.12c0,4-.5,4.67-3.61,4.67v1.06H128.5V44.72c-3.12,0-3.62-.72-3.62-4.67v-2h1L132,45.78h16.19c8,0,11.41-4.23,11.41-9.29S156.15,27.25,148.19,27.25Zm-23.31,9.07v-7.4h2.28a3.41,3.41,0,0,1,3.62,3.73,3.39,3.39,0,0,1-3.62,3.67Zm23.48,7.73H148c-2,0-2.28-.5-2.28-3.06V28.92h2.67c5.78,0,6.84,4.23,6.84,7.51S154.14,44.05,148.36,44.05Z"/><path class="cls-1" d="M86.44,38.38,90.28,27c1.12-3.28.61-4.23-3-4.23V21.69H97.79V22.8c-3.5,0-4.34.84-5.73,4.9l-6.34,19H85L79.32,29.31,73.54,46.72h-.73l-6.17-19c-1.34-4.06-2.23-4.9-5.45-4.9V21.69H73.54V22.8c-3.28,0-4.17.78-3,4.23l3.73,11.35,5.62-16.69h1.06Z"/><path class="cls-1" d="M105.36,46.5c-6.12,0-11.13-4.5-11.13-10s5-10,11.13-10,11.12,4.51,11.12,10S111.48,46.5,105.36,46.5Zm0-18.24c-5.12,0-6.9,4.61-6.9,8.23s1.78,8.23,6.9,8.23,7-4.56,7-8.23S110.53,28.26,105.36,28.26Z"/><path class="cls-1" d="M173.34,44.67v1.11H160.6V44.67c3.72,0,4.39-1,4.39-6.51v-8.9c0-5.57-.67-6.46-4.39-6.46V21.69h11.51c5.73,0,8.9,2.95,8.9,6.9s-3.17,6.84-8.9,6.84h-3.17v2.73C168.94,43.72,169.61,44.67,173.34,44.67Zm-1.23-21h-3.17v9.68h3.17c3.12,0,4.56-2.17,4.56-4.78S175.23,23.69,172.11,23.69Z"/><path class="cls-1" d="M219.23,40.55l-.28,1c-.5,1.84-1.11,2.5-5.06,2.5h-.78c-2.89,0-3.39-.66-3.39-4.61V36.88c4.34,0,4.67.39,4.67,3.28h1.06V31.87h-1.06c0,2.89-.33,3.28-4.67,3.28V28.92h3.06c3.95,0,4.56.67,5.06,2.51l.28,1H219l-.39-5.23H202.26v1.06c3.12,0,3.62.67,3.62,4.62v7.12c0,3.61-.43,4.52-2.88,4.65-2.34-.35-3.94-1.63-6.13-4l-2.56-2.78c3.45-.61,5.28-2.78,5.28-5.23,0-3.06-2.61-5.4-7.51-5.4h-9.79v1.06c3.12,0,3.62.67,3.62,4.62v7.12c0,4-.5,4.67-3.62,4.67v1.06h11.07V44.72c-3.11,0-3.61-.72-3.61-4.67v-2h.94l6.18,7.73h22.86l.34-5.23Zm-29.48-4.23v-7.4H192a3.41,3.41,0,0,1,3.61,3.73A3.39,3.39,0,0,1,192,36.32Z"/><path class="cls-1" d="M230.52,46.5a8.23,8.23,0,0,1-5-1.89,4,4,0,0,0-.89,1.89h-1.06V38.82h1.11c.45,3.68,3,5.85,6.29,5.85,1.78,0,3.22-1,3.22-2.67,0-1.45-1.27-2.56-3.56-3.62l-3.17-1.5c-2.22-1.06-3.89-2.9-3.89-5.34,0-2.67,2.5-4.95,6-4.95A7,7,0,0,1,233.86,28a3,3,0,0,0,.72-1.5h1.06v6.56h-1.17c-.39-2.61-1.83-4.78-4.78-4.78-1.56,0-3,.89-3,2.28s1.17,2.23,3.84,3.45l3.06,1.5c2.67,1.28,3.73,3.34,3.73,5C237.31,44.05,234.25,46.5,230.52,46.5Z"/><path class="cls-1" d="M247.66,46.5a8.23,8.23,0,0,1-5-1.89,4,4,0,0,0-.89,1.89H240.7V38.82h1.12c.44,3.68,3,5.85,6.28,5.85,1.78,0,3.23-1,3.23-2.67,0-1.45-1.28-2.56-3.56-3.62l-3.17-1.5c-2.23-1.06-3.9-2.9-3.9-5.34,0-2.67,2.51-4.95,6-4.95A6.93,6.93,0,0,1,251,28a3.11,3.11,0,0,0,.73-1.5h1.05v6.56h-1.16c-.39-2.61-1.84-4.78-4.79-4.78-1.56,0-3,.89-3,2.28S245,32.82,247.66,34l3.06,1.5c2.67,1.28,3.72,3.34,3.72,5C254.44,44.05,251.38,46.5,247.66,46.5Z"/><path class="cls-1" d="M5.56,33.36A24.63,24.63,0,0,0,19.43,55.52L7.69,23.34A24.45,24.45,0,0,0,5.56,33.36Z"/><path class="cls-1" d="M46.79,32.12a12.92,12.92,0,0,0-2-6.79c-1.24-2-2.41-3.75-2.41-5.78a4.26,4.26,0,0,1,4.13-4.37l.32,0A24.61,24.61,0,0,0,9.61,19.84l1.58,0c2.57,0,6.56-.32,6.56-.32a1,1,0,0,1,.16,2s-1.34.16-2.82.24l9,26.66,5.38-16.15L25.61,21.82c-1.33-.08-2.58-.24-2.58-.24a1,1,0,0,1,.15-2s4.07.32,6.49.32,6.56-.32,6.56-.32a1,1,0,0,1,.16,2s-1.34.16-2.82.24l8.89,26.46,2.46-8.2C46,36.67,46.79,34.22,46.79,32.12Z"/><path class="cls-1" d="M30.61,35.51,23.22,57a25,25,0,0,0,7,1,24.6,24.6,0,0,0,8.17-1.4,1.2,1.2,0,0,1-.17-.34Z"/><path class="cls-1" d="M51.78,21.55a19.83,19.83,0,0,1,.16,2.53,23.12,23.12,0,0,1-1.87,8.82L42.55,54.64a24.64,24.64,0,0,0,9.23-33.09Z"/><path class="cls-1" d="M30.18,4.66a28.7,28.7,0,1,0,28.69,28.7A28.73,28.73,0,0,0,30.18,4.66Zm0,56.08A27.38,27.38,0,1,1,57.56,33.36,27.42,27.42,0,0,1,30.18,60.74Z"/></svg>