<svg id="Layer_1" data-name="Layer 1" xmlns="http://www.w3.org/2000/svg" viewBox="0 0 200.4 66.5"><defs><style>.cls-1{fill:#d3dce6;}</style></defs><title>wordpress2</title><path class="cls-1" d="M116,28.17h-7.77V29c2.43,0,2.82.52,2.82,3.61v5.56c0,3.09-.39,3.65-2.82,3.65-1.87-.26-3.13-1.26-4.87-3.17l-2-2.17c2.69-.48,4.13-2.18,4.13-4.09,0-2.39-2-4.21-5.87-4.21H92V29c2.44,0,2.83.52,2.83,3.61v5.56c0,3.09-.39,3.65-2.83,3.65v.83h8.65v-.83c-2.43,0-2.82-.56-2.82-3.65V36.6h.74l4.82,6H116c6.22,0,8.91-3.3,8.91-7.26S122.22,28.17,116,28.17ZM97.8,35.25V29.47h1.78a2.67,2.67,0,0,1,2.82,2.91,2.65,2.65,0,0,1-2.82,2.87Zm18.33,6h-.3c-1.56,0-1.78-.39-1.78-2.39V29.47h2.08c4.52,0,5.35,3.3,5.35,5.87S120.65,41.29,116.13,41.29Z"/><path class="cls-1" d="M67.77,36.86l3-8.87c.87-2.56.48-3.3-2.3-3.3v-.87h8.17v.87c-2.74,0-3.39.65-4.48,3.83l-5,14.86h-.57l-4.43-13.6-4.52,13.6h-.56L52.3,28.52c-1-3.18-1.73-3.83-4.25-3.83v-.87h9.64v.87c-2.56,0-3.26.61-2.34,3.3l2.91,8.87,4.39-13h.82Z"/><path class="cls-1" d="M82.55,43.2c-4.78,0-8.69-3.52-8.69-7.82s3.91-7.78,8.69-7.78,8.69,3.52,8.69,7.78S87.33,43.2,82.55,43.2Zm0-14.25c-4,0-5.39,3.61-5.39,6.43s1.39,6.43,5.39,6.43S88,38.25,88,35.38,86.59,29,82.55,29Z"/><path class="cls-1" d="M135.64,41.77v.87h-9.95v-.87c2.91,0,3.44-.74,3.44-5.09V29.73c0-4.34-.53-5-3.44-5v-.87h9c4.47,0,6.95,2.31,6.95,5.39s-2.48,5.35-6.95,5.35h-2.48v2.12C132.21,41,132.73,41.77,135.64,41.77Zm-.95-16.38h-2.48V33h2.48c2.43,0,3.56-1.7,3.56-3.74S137.12,25.39,134.69,25.39Z"/><path class="cls-1" d="M171.49,38.55l-.22.78c-.39,1.44-.87,2-4,2h-.61c-2.26,0-2.65-.52-2.65-3.61v-2c3.39,0,3.65.3,3.65,2.56h.83V31.77h-.83c0,2.26-.26,2.57-3.65,2.57V29.47h2.39c3.08,0,3.56.52,4,2l.22.82h.7L171,28.17H158.24V29c2.43,0,2.82.52,2.82,3.61v5.56c0,2.82-.33,3.54-2.25,3.64-1.82-.28-3.07-1.28-4.79-3.16l-2-2.17c2.7-.48,4.13-2.18,4.13-4.09,0-2.39-2-4.21-5.86-4.21h-7.65V29c2.43,0,2.82.52,2.82,3.61v5.56c0,3.09-.39,3.65-2.82,3.65v.83h8.65v-.83c-2.44,0-2.83-.56-2.83-3.65V36.6h.74l4.82,6h17.86l.26-4.09Zm-23-3.3V29.47h1.78a2.67,2.67,0,0,1,2.83,2.91,2.66,2.66,0,0,1-2.83,2.87Z"/><path class="cls-1" d="M180.31,43.2a6.38,6.38,0,0,1-3.91-1.48,3,3,0,0,0-.69,1.48h-.83v-6h.87a4.82,4.82,0,0,0,4.91,4.56c1.39,0,2.52-.78,2.52-2.09,0-1.13-1-2-2.78-2.82l-2.48-1.17a4.73,4.73,0,0,1-3-4.18c0-2.08,2-3.86,4.65-3.86a5.44,5.44,0,0,1,3.39,1.13,2.49,2.49,0,0,0,.56-1.18h.83v5.13h-.91c-.31-2-1.44-3.74-3.74-3.74-1.22,0-2.35.7-2.35,1.79s.92,1.73,3,2.69l2.39,1.17a4.53,4.53,0,0,1,2.91,3.91C185.61,41.29,183.22,43.2,180.31,43.2Z"/><path class="cls-1" d="M193.69,43.2a6.41,6.41,0,0,1-3.91-1.48,3.14,3.14,0,0,0-.69,1.48h-.83v-6h.87A4.83,4.83,0,0,0,194,41.77c1.39,0,2.52-.78,2.52-2.09,0-1.13-1-2-2.78-2.82l-2.48-1.17a4.75,4.75,0,0,1-3-4.18c0-2.08,2-3.86,4.65-3.86a5.42,5.42,0,0,1,3.39,1.13,2.4,2.4,0,0,0,.56-1.18h.83v5.13h-.91c-.31-2-1.44-3.74-3.74-3.74-1.21,0-2.34.7-2.34,1.79s.91,1.73,3,2.69l2.39,1.17A4.53,4.53,0,0,1,199,38.55C199,41.29,196.6,43.2,193.69,43.2Z"/><path class="cls-1" d="M4.59,32.94a19.23,19.23,0,0,0,10.84,17.3L6.26,25.11A19.12,19.12,0,0,0,4.59,32.94Z"/><path class="cls-1" d="M36.8,32a10.16,10.16,0,0,0-1.58-5.31c-1-1.58-1.89-2.92-1.89-4.51a3.33,3.33,0,0,1,3.23-3.41l.25,0A19.23,19.23,0,0,0,7.75,22.38L9,22.4c2,0,5.13-.25,5.13-.25a.8.8,0,0,1,.12,1.59s-1,.12-2.2.18l7,20.83,4.21-12.62-3-8.21c-1-.06-2-.18-2-.18a.8.8,0,0,1,.12-1.59s3.18.25,5.06.25,5.13-.25,5.13-.25a.8.8,0,0,1,.12,1.59s-1,.12-2.2.18l7,20.67,1.92-6.41C36.17,35.52,36.8,33.61,36.8,32Z"/><path class="cls-1" d="M24.16,34.62,18.39,51.38a19.06,19.06,0,0,0,5.43.79,19.31,19.31,0,0,0,6.39-1.09,1.71,1.71,0,0,1-.14-.27Z"/><path class="cls-1" d="M40.7,23.71a15.26,15.26,0,0,1,.12,2,18.13,18.13,0,0,1-1.46,6.89l-5.87,17A19.25,19.25,0,0,0,40.7,23.71Z"/><path class="cls-1" d="M23.82,10.52A22.42,22.42,0,1,0,46.24,32.94,22.44,22.44,0,0,0,23.82,10.52Zm0,43.81A21.39,21.39,0,1,1,45.21,32.94,21.42,21.42,0,0,1,23.82,54.33Z"/></svg>